<svg width="50" height="50" viewBox="0 0 50 50" fill="none" xmlns="http://www.w3.org/2000/svg">
<path d="M40.3783 22.962L32.3796 14.9087C30.286 12.8203 27.4492 11.6481 24.492 11.6494C21.5349 11.6507 18.6991 12.8255 16.6074 14.9158L14.9721 16.6033C14.8408 16.739 14.7688 16.9214 14.7719 17.1102C14.775 17.299 14.853 17.4788 14.9887 17.6101C15.1244 17.7414 15.3067 17.8135 15.4955 17.8104C15.6844 17.8072 15.8642 17.7293 15.9955 17.5935L17.619 15.9179C18.3338 15.2018 19.156 14.6016 20.056 14.1391L25.8668 19.9499L14.3092 31.5003C14.1548 31.6545 14.0324 31.8376 13.9488 32.0392C13.8653 32.2407 13.8223 32.4568 13.8223 32.6749C13.8223 32.8931 13.8653 33.1092 13.9488 33.3107C14.0324 33.5123 14.1548 33.6954 14.3092 33.8495L16.7628 36.3031C16.9169 36.4573 17.1 36.5796 17.3014 36.6631C17.5028 36.7465 17.7187 36.7895 17.9368 36.7895C18.1548 36.7895 18.3707 36.7465 18.5722 36.6631C18.7736 36.5796 18.9566 36.4573 19.1108 36.3031L30.6636 24.7479L34.6268 28.7111C34.781 28.8653 34.964 28.9876 35.1655 29.0711C35.3669 29.1545 35.5828 29.1975 35.8008 29.1975C36.0189 29.1975 36.2348 29.1545 36.4362 29.0711C36.6377 28.9876 36.8207 28.8653 36.9749 28.7111L40.376 25.3089C40.6873 24.9979 40.8624 24.576 40.8629 24.1359C40.8633 23.6959 40.689 23.2736 40.3783 22.962ZM18.1052 35.2963C18.0832 35.3184 18.057 35.3359 18.0282 35.3478C17.9994 35.3597 17.9685 35.3659 17.9374 35.3659C17.9062 35.3659 17.8753 35.3597 17.8466 35.3478C17.8178 35.3359 17.7916 35.3184 17.7696 35.2963L15.316 32.8427C15.2939 32.8207 15.2765 32.7946 15.2645 32.7658C15.2526 32.737 15.2464 32.7061 15.2464 32.6749C15.2464 32.6438 15.2526 32.6129 15.2645 32.5841C15.2765 32.5553 15.2939 32.5292 15.316 32.5071L23.5484 24.2736L26.3364 27.0651L18.1052 35.2963ZM30.1608 23.2383L27.3432 26.056L24.554 23.2703L27.3716 20.4527C27.4378 20.3866 27.4903 20.3081 27.5261 20.2218C27.5619 20.1354 27.5803 20.0428 27.5803 19.9493C27.5803 19.8558 27.5619 19.7632 27.5261 19.6768C27.4903 19.5904 27.4378 19.512 27.3716 19.4459L21.4778 13.5461C23.1857 12.9896 25.0144 12.9166 26.7612 13.3352C28.5081 13.7538 30.105 14.6477 31.3752 15.9179L36.7851 21.3646L33.0354 25.1073L31.1664 23.2383C31.033 23.1051 30.8522 23.0302 30.6636 23.0302C30.4751 23.0302 30.2942 23.1051 30.1608 23.2383ZM39.3703 24.3056L35.9681 27.7091C35.946 27.7311 35.9199 27.7486 35.8911 27.7606C35.8623 27.7725 35.8314 27.7786 35.8003 27.7786C35.7691 27.7786 35.7382 27.7725 35.7094 27.7606C35.6806 27.7486 35.6545 27.7311 35.6325 27.7091L34.0422 26.1164L37.7848 22.3726L39.3703 23.9688C39.4142 24.0132 39.4387 24.0731 39.4387 24.1354C39.4387 24.1978 39.4142 24.2577 39.3703 24.302V24.3056Z" fill="black"/>
</svg>
