<svg width="70" height="60" viewBox="0 0 70 60" fill="none" xmlns="http://www.w3.org/2000/svg">
<path d="M33.1318 51.8555L32.9443 51.8848C32.8851 51.8968 32.8536 51.8965 32.8438 51.8965C32.8339 51.894 32.7999 51.8864 32.7607 51.8828C32.7161 51.8787 32.5825 51.8716 32.4443 51.957C32.2995 52.0468 32.2462 52.1776 32.2275 52.2363C32.2101 52.2914 32.2051 52.3391 32.2041 52.3486C32.2026 52.3629 32.2014 52.3791 32.2012 52.3828C32.2 52.3991 32.198 52.4316 32.1836 52.498C32.147 52.6669 32.134 52.8976 32.1299 53.124C32.1256 53.3612 32.1312 53.6323 32.1436 53.9004C32.1677 54.4239 32.2197 54.9881 32.2871 55.2871C32.3501 55.5666 32.4436 55.8101 32.5869 56.0068C32.7377 56.2138 32.9278 56.3467 33.1406 56.4219C33.3392 56.492 33.5406 56.5056 33.708 56.5078C33.7937 56.509 33.8818 56.5078 33.9629 56.5059C34.0464 56.5039 34.125 56.501 34.2061 56.501H38.624L38.7217 56.458C38.8301 56.4096 38.8936 56.3362 38.9229 56.2969C38.9545 56.2545 38.973 56.2151 38.9834 56.1914C39.004 56.1443 39.0152 56.1012 39.0205 56.0781C39.0319 56.0285 39.0383 55.9762 39.043 55.9336C39.0527 55.8434 39.0604 55.727 39.0654 55.6016C39.0756 55.3476 39.0797 55.0165 39.0801 54.6865C39.0805 54.3554 39.0771 54.0199 39.0713 53.7559C39.0684 53.6241 39.0645 53.5078 39.0605 53.418C39.0576 53.3514 39.0525 53.2452 39.0381 53.1758C38.9186 52.6014 38.695 52.1682 38.2285 51.9766C38.0262 51.8935 37.8186 51.8757 37.6455 51.8711C37.4911 51.867 37.2679 51.875 37.1172 51.875H34.248C34.0723 51.875 33.9085 51.8577 33.667 51.8467C33.5055 51.8393 33.3198 51.8355 33.1318 51.8555ZM15.5352 30.3164C14.7597 30.3022 13.9986 30.3532 13.2607 30.4668L12.8516 30.5293L12.8369 30.9424C12.7353 33.762 12.8741 36.5821 13.0039 39.375C13.1341 42.1754 13.2554 44.9505 13.125 47.7168L13.0977 48.2852L13.665 48.2383C14.3278 48.1839 14.9955 48.0635 15.6572 47.8848L16.0264 47.7852V30.3252L15.5352 30.3164ZM11.0908 31.0186C9.15938 31.7249 7.5223 32.9736 6.50098 34.7939C5.47978 36.6143 5.1003 38.9591 5.59668 41.8115C5.93492 43.7555 6.68559 45.2358 7.73047 46.2891C8.77544 47.3423 10.0872 47.9397 11.498 48.167L12.0527 48.2568L12.0762 47.6943C12.1906 44.9746 12.0724 42.2552 11.9463 39.5586C11.8199 36.855 11.6865 34.1758 11.7627 31.502L11.7832 30.7646L11.0908 31.0186ZM51.7764 46.6787L52.1211 46.791C52.8458 47.027 53.5723 47.1968 54.2852 47.2783L54.8447 47.3428L54.8418 46.7783C54.8057 41.2757 55.2784 35.5828 54.7314 30.0146L54.6943 29.6338L54.3164 29.5703L53.8135 29.4971C53.3097 29.4323 52.8001 29.3945 52.2871 29.3838L51.7764 29.373V46.6787ZM55.8564 30.6592C56.2551 36.0029 55.8515 41.3226 55.9004 46.7588L55.9053 47.3311L56.4717 47.249C58.058 47.019 59.4768 46.2956 60.5312 45.0186C61.582 43.7459 62.2413 41.9606 62.3857 39.6543C62.5455 37.1022 61.9802 35.0483 60.9072 33.4629C59.836 31.8802 58.2833 30.8021 56.5283 30.1533L55.7988 29.8828L55.8564 30.6592ZM36.8633 3.63672C30.7794 2.77745 25.8944 4.33356 22.4961 7.5293C19.1064 10.717 17.2533 15.4821 17.1104 20.9385L18.0703 21.1465C20.5871 15.2243 25.257 10.8539 31.3369 9.59961C35.5272 8.73522 39.2239 9.51728 42.2949 11.458C45.3744 13.4041 47.8515 16.5326 49.5488 20.3936L50.5049 20.1582C49.9429 11.9478 45.5453 4.86307 36.8633 3.63672ZM49.6875 28.9082L49.6816 28.8721C49.1371 25.2076 47.8887 21.1328 45.9209 17.6953C43.9565 14.2637 41.241 11.4097 37.7393 10.2969C32.2726 8.55967 25.4763 11.0358 22.125 16.2139C21.0123 17.9331 20.1695 19.8804 19.5244 21.8467C18.7786 24.1203 18.2327 26.5941 18.0947 29.043C18.0922 29.0515 18.0894 29.0613 18.0869 29.0713C18.0808 29.096 18.0751 29.1275 18.0723 29.1641L18.0674 29.2334L18.0801 29.3008C18.0864 29.3324 18.0935 29.3617 18.0986 29.3828C18.1044 29.4065 18.1083 29.4199 18.1113 29.4336C18.1137 29.4443 18.1147 29.4508 18.1152 29.4541V47.8008L18.2168 47.9287C18.2174 47.9316 18.2192 47.9372 18.2197 47.9463C18.236 48.2658 18.2414 48.639 18.25 49.0527C18.2585 49.4615 18.2698 49.9036 18.2988 50.3428C18.3554 51.2005 18.482 52.1294 18.8398 52.8047C19.2879 53.6499 20.1409 53.9599 20.917 54.084C21.6772 54.2055 22.5533 54.1703 23.0967 54.1914C25.6634 54.2912 28.2446 54.151 30.7861 53.9268L31.2158 53.8887L31.2412 53.457C31.2809 52.7682 31.4984 52.2844 31.8145 51.9619C32.1312 51.6387 32.5926 51.4305 33.2041 51.3789C34.1765 51.2969 35.1283 51.3789 36.1855 51.3789C36.4456 51.3789 36.722 51.3628 36.9912 51.3457C37.2653 51.3283 37.5339 51.3096 37.8018 51.3018C38.3443 51.286 38.8188 51.3178 39.1992 51.46C39.71 51.6508 39.9342 52.0161 40.0361 52.5596C40.1474 53.1533 40.0908 53.8215 40.0908 54.5684C40.0908 55.2327 39.9594 55.7091 39.7432 56.0527C39.5306 56.3905 39.2093 56.6427 38.748 56.8154L38.7197 56.8262L38.6924 56.8408C38.5597 56.9101 38.4187 56.9562 38.2871 56.9756L38.2734 56.9775L38.2607 56.9805C38.2261 56.9875 38.1968 56.9952 38.1748 57.0029C38.0533 57.0226 37.9801 57.0175 37.9346 57.0078L37.8838 56.9971H34.835C34.5874 56.9971 34.3188 57.0138 34.0596 57.0293C33.7947 57.0452 33.5338 57.0602 33.2764 57.0625C32.7508 57.0672 32.3116 57.0149 31.9844 56.8486C31.4162 56.5598 31.2183 55.9242 31.1943 54.9854L31.1816 54.4531L30.6504 54.501C27.4155 54.7926 24.1261 55.0141 20.9424 54.6777C20.3383 54.6139 19.7209 54.565 19.1572 54.3955C18.6064 54.2299 18.1701 53.9662 17.8965 53.5146C17.6415 53.0937 17.4791 52.5017 17.3799 51.8047C17.2816 51.1145 17.2508 50.3688 17.2295 49.6621L17.209 48.9863L16.5693 49.2041C13.5575 50.2265 10.4252 50.1648 7.97852 48.8955C5.55437 47.6378 3.72702 45.1558 3.36621 41.1631C2.98544 36.9486 4.34499 33.9326 6.55859 31.9258C8.78926 29.9036 11.9351 28.8645 15.1768 28.7256L15.7607 28.7012L15.6455 28.1279C14.3398 21.6314 15.3136 15.785 18.0771 11.3828C20.8367 6.98719 25.4065 3.98895 31.3887 3.21777C35.1891 2.72792 39.3511 2.87392 42.9639 4.22656C46.5603 5.57321 49.6207 8.11587 51.2676 12.46C52.9479 16.8921 52.9536 22.356 51.9668 27.1436L51.8428 27.7451H52.4561C55.9569 27.747 59.2953 28.8438 61.5586 31.0293C63.804 33.1976 65.0504 36.4932 64.2861 41.0381C63.6372 44.8968 61.522 47.1757 58.8799 48.2354C56.2117 49.3053 52.9547 49.1496 50.0439 48.0117C49.8168 47.9229 49.7329 47.8275 49.7021 47.7744C49.6745 47.7263 49.6603 47.6611 49.6846 47.5576L49.6992 47.4932L49.6973 47.4268C49.6964 47.4022 49.6939 47.3789 49.6904 47.3574C49.6896 47.3524 49.6884 47.3475 49.6875 47.3428V28.9082Z" stroke="black"/>
</svg>
