<svg width="50" height="50" viewBox="0 0 50 50" fill="none" xmlns="http://www.w3.org/2000/svg">
<path d="M36.6248 18.9999V18.6944C36.6229 16.9239 35.9187 15.2266 34.6668 13.9747C33.4149 12.7227 31.7175 12.0186 29.947 12.0166H28.9577C28.4985 12.0166 28.0582 12.199 27.7335 12.5237C27.4088 12.8484 27.2264 13.2887 27.2264 13.7479V28.8348H24.7532V15.7265C24.7532 15.5297 24.675 15.341 24.5358 15.2018C24.3967 15.0627 24.208 14.9845 24.0112 14.9845H11.1502C10.6911 14.9845 10.2507 15.1669 9.92603 15.4916C9.60135 15.8163 9.41895 16.2566 9.41895 16.7158V29.5768C9.41895 30.3554 9.66394 31.1143 10.1192 31.746C10.5745 32.3776 11.217 32.85 11.9557 33.0963C12.6943 33.3425 13.4918 33.3501 14.235 33.1179C14.9782 32.8857 15.6296 32.4256 16.0967 31.8027C16.5257 32.3749 17.1108 32.811 17.7818 33.0584C18.4528 33.3058 19.1809 33.354 19.8787 33.1972C20.5764 33.0404 21.2139 32.6853 21.7145 32.1746C22.2151 31.6639 22.5575 31.0194 22.7004 30.3187H33.2364C33.4195 31.2203 33.9311 32.0218 34.6718 32.5674C35.4126 33.1131 36.3296 33.364 37.245 33.2716C38.1603 33.1791 39.0087 32.7498 39.6253 32.0671C40.242 31.3843 40.583 30.4968 40.582 29.5768V23.6409C40.5805 22.5236 40.1816 21.4432 39.4566 20.5929C38.7316 19.7427 37.7279 19.178 36.6248 18.9999ZM28.7104 13.7479C28.7104 13.6823 28.7364 13.6194 28.7828 13.573C28.8292 13.5266 28.8921 13.5006 28.9577 13.5006H29.947C31.3245 13.5006 32.6456 14.0478 33.6196 15.0218C34.5937 15.9958 35.1409 17.3169 35.1409 18.6944V19.6837C35.1409 19.8805 35.219 20.0692 35.3582 20.2084C35.4973 20.3475 35.6861 20.4257 35.8828 20.4257C36.7356 20.4257 37.5534 20.7644 38.1564 21.3674C38.7593 21.9704 39.0981 22.7882 39.0981 23.6409V26.6088C38.5976 26.2333 38.0102 25.9904 37.3906 25.9029C36.7711 25.8153 36.1394 25.8859 35.5544 26.108C34.9695 26.3302 34.4502 26.6967 34.0449 27.1734C33.6396 27.6502 33.3615 28.2217 33.2364 28.8348H28.7104V13.7479ZM11.1502 16.4685H23.2692V28.8348H22.7004C22.5575 28.1341 22.2151 27.4896 21.7145 26.9789C21.2139 26.4682 20.5764 26.1131 19.8787 25.9563C19.1809 25.7995 18.4528 25.8477 17.7818 26.0952C17.1108 26.3426 16.5257 26.7786 16.0967 27.3508C15.5064 26.5637 14.6275 26.0433 13.6535 25.9041C12.6795 25.765 11.69 26.0185 10.9029 26.6088V16.7158C10.9029 16.6502 10.929 16.5873 10.9753 16.5409C11.0217 16.4945 11.0846 16.4685 11.1502 16.4685ZM13.1288 31.8027C12.6886 31.8027 12.2582 31.6721 11.8922 31.4275C11.5261 31.183 11.2408 30.8353 11.0723 30.4286C10.9039 30.0218 10.8598 29.5743 10.9457 29.1425C11.0316 28.7107 11.2436 28.3141 11.5549 28.0028C11.8662 27.6915 12.2628 27.4795 12.6946 27.3936C13.1264 27.3077 13.5739 27.3518 13.9807 27.5203C14.3874 27.6887 14.735 27.974 14.9796 28.3401C15.2242 28.7061 15.3548 29.1365 15.3548 29.5768C15.3548 30.1671 15.1203 30.7333 14.7028 31.1507C14.2854 31.5682 13.7192 31.8027 13.1288 31.8027ZM19.0647 31.8027C18.6244 31.8027 18.1941 31.6721 17.828 31.4275C17.4619 31.183 17.1766 30.8353 17.0082 30.4286C16.8397 30.0218 16.7956 29.5743 16.8815 29.1425C16.9674 28.7107 17.1794 28.3141 17.4907 28.0028C17.802 27.6915 18.1986 27.4795 18.6304 27.3936C19.0622 27.3077 19.5098 27.3518 19.9165 27.5203C20.3232 27.6887 20.6709 27.974 20.9155 28.3401C21.16 28.7061 21.2906 29.1365 21.2906 29.5768C21.2906 30.1671 21.0561 30.7333 20.6386 31.1507C20.2212 31.5682 19.655 31.8027 19.0647 31.8027ZM36.8721 31.8027C36.4319 31.8027 36.0015 31.6721 35.6355 31.4275C35.2694 31.183 34.9841 30.8353 34.8156 30.4286C34.6472 30.0218 34.6031 29.5743 34.689 29.1425C34.7749 28.7107 34.9869 28.3141 35.2982 28.0028C35.6095 27.6915 36.0061 27.4795 36.4379 27.3936C36.8697 27.3077 37.3172 27.3518 37.724 27.5203C38.1307 27.6887 38.4783 27.974 38.7229 28.3401C38.9675 28.7061 39.0981 29.1365 39.0981 29.5768C39.0981 30.1671 38.8636 30.7333 38.4461 31.1507C38.0287 31.5682 37.4625 31.8027 36.8721 31.8027Z" fill="#17242F"/>
</svg>
