<svg width="84" height="101" viewBox="0 0 84 101" fill="none" xmlns="http://www.w3.org/2000/svg">
<path d="M-9.51392 11.7456C-2.21035 8.57445 8.35737 10.9115 15.7981 12.5219C25.525 14.6271 35.4564 17.4621 39.7628 27.4364C42.948 34.8135 41.2444 43.1832 37.6284 50.0982C34.9255 55.267 25.9195 68.4605 18.5663 64.6148C13.4423 61.9349 12.579 54.0138 14.6374 49.1713C18.1036 41.0171 27.9874 38.5464 35.9734 40.1087C46.0512 42.0803 54.6131 49.0118 57.9784 58.8077C62.3169 71.4366 59.6274 84.7201 55.6848 97.0298" stroke="#F9F4F0" stroke-width="2" stroke-linecap="round" stroke-linejoin="round"/>
<path d="M56.3865 97.0416C56.2448 96.9639 56.0971 96.7703 55.9215 96.7873C55.8498 96.7943 55.5855 97.0581 55.7552 97.0458C56.2451 97.0102 56.9119 96.4041 57.3262 96.1223C59.7911 94.4453 62.2179 92.6914 64.6902 91.0325" stroke="#F9F4F0" stroke-width="2" stroke-linecap="round" stroke-linejoin="round"/>
<path d="M55.6855 97.0289C55.6649 96.828 55.6225 96.7204 55.5047 96.5665C55.136 96.0851 55.0416 95.347 54.8541 94.7818C53.8407 91.7272 52.7232 88.7201 51.7656 85.6432" stroke="#F9F4F0" stroke-width="2" stroke-linecap="round" stroke-linejoin="round"/>
</svg>
