<svg width="50" height="50" viewBox="0 0 50 50" fill="none" xmlns="http://www.w3.org/2000/svg">
<path d="M36.9452 17.4207L25.8475 11.3459C25.588 11.2026 25.2964 11.1274 25 11.1274C24.7036 11.1274 24.412 11.2026 24.1525 11.3459L13.0548 17.4219C12.7771 17.5739 12.5454 17.7977 12.3839 18.0699C12.2223 18.3421 12.137 18.6528 12.1367 18.9693V31.0305C12.137 31.3471 12.2223 31.6577 12.3839 31.9299C12.5454 32.2022 12.7771 32.426 13.0548 32.5779L24.1525 38.6539C24.4121 38.797 24.7036 38.872 25 38.872C25.2964 38.872 25.5879 38.797 25.8475 38.6539L36.9452 32.5779C37.2229 32.426 37.4546 32.2022 37.6161 31.9299C37.7777 31.6577 37.863 31.3471 37.8633 31.0305V18.9693C37.8632 18.6525 37.778 18.3416 37.6165 18.0692C37.4549 17.7967 37.2231 17.5727 36.9452 17.4207ZM24.8739 12.6726C24.911 12.6523 24.9526 12.6416 24.995 12.6416C25.0373 12.6416 25.0789 12.6523 25.116 12.6726L35.6576 18.4422L25 24.2735L14.3424 18.4422L24.8739 12.6726ZM13.7762 31.2512C13.7375 31.2289 13.7054 31.1967 13.6833 31.1579C13.6611 31.1191 13.6496 31.0752 13.65 31.0305V19.7865L24.2433 25.5876V36.9804L13.7762 31.2512ZM36.2138 31.2512L25.7567 36.9804V25.5851L36.35 19.784V31.028C36.3508 31.0731 36.3396 31.1176 36.3174 31.1568C36.2952 31.1961 36.2629 31.2287 36.2238 31.2512H36.2138Z" fill="black"/>
</svg>
