<svg width="52" height="60" viewBox="0 0 52 60" fill="none" xmlns="http://www.w3.org/2000/svg">
<g clip-path="url(#clip0_1373_3591)">
<path d="M28.8705 24.1653C27.0072 26.1844 24.6925 27.9018 22.1972 29.0695C21.0055 29.6299 19.6694 30.079 18.3369 30.0359C17.0044 29.9928 15.8814 29.2419 15.2964 28.0168C14.6247 26.6156 14.7511 24.9844 14.91 23.4862C15.0833 21.8335 15.2783 20.1808 15.4589 18.5281L16.0114 13.5593C16.1739 12.1042 16.275 10.6239 16.5819 9.19042C16.86 7.88263 17.3403 6.61796 18.3514 5.69461C18.8822 5.20958 19.4925 4.82515 20.0558 4.38323C20.6192 3.94131 21.0669 3.44551 21.5075 2.90299C21.948 2.36048 22.3633 1.8467 22.9555 1.50898C23.5478 1.17125 24.1942 1.03832 24.855 1.08143C26.2019 1.17125 27.2094 2.20958 28.3542 2.79521C28.9825 3.11497 29.6397 3.30179 30.3439 3.33772C31.1383 3.37724 31.9255 3.22994 32.7164 3.18323C33.9261 3.10778 35.2189 3.31976 35.6486 4.60958C35.8472 5.20958 35.9122 5.84551 36.1108 6.44551C36.2914 6.9988 36.5803 7.48383 36.9703 7.92215C37.6997 8.74131 38.7144 9.26946 39.4114 10.121C40.2925 11.1988 39.7689 12.4383 39.48 13.6383C39.3175 14.321 39.2489 14.9964 39.3861 15.6862C39.5233 16.376 39.8953 17.0587 39.9819 17.7844C40.13 19.0347 39.2453 20.0551 38.3533 20.8132C37.2483 21.7581 35.9483 22.4982 34.735 23.2994L32.6622 24.6647C32.0844 25.0455 32.6261 25.9796 33.2075 25.5952C34.7097 24.6072 36.2264 23.6299 37.7178 22.6239C38.7975 21.8982 39.9061 21.0575 40.5633 19.9078C40.8847 19.3437 41.0833 18.7078 41.0797 18.0575C41.0761 17.2563 40.7403 16.5341 40.5236 15.776C40.083 14.2419 41.0869 12.8695 41.0039 11.3389C40.9317 10.0491 40.0867 9.15808 39.1333 8.38562C38.6675 8.00838 38.18 7.64191 37.7755 7.1964C37.3458 6.72575 37.14 6.17964 36.9992 5.56527C36.8439 4.89341 36.7319 4.1964 36.378 3.58922C36.0458 3.01796 35.5222 2.61197 34.9119 2.37485C33.4205 1.78922 31.8786 2.33533 30.3475 2.25628C28.8164 2.17724 27.7908 1.01317 26.4764 0.420356C25.1619 -0.172458 23.6092 -0.143716 22.3489 0.614368C21.0886 1.37245 20.3555 2.82754 19.153 3.72575C18.5247 4.1964 17.853 4.63113 17.3078 5.20239C16.8311 5.70179 16.4519 6.28742 16.1703 6.91616C15.5708 8.25628 15.3614 9.71137 15.1953 11.1557C14.9894 12.9341 14.798 14.7162 14.5994 16.4946L13.9964 21.909C13.805 23.6371 13.5125 25.4084 13.8664 27.1329C14.1444 28.4838 14.8919 29.8096 16.1125 30.521C17.333 31.2323 18.9508 31.2216 20.3483 30.8802C23.248 30.1724 25.9203 28.3329 28.1267 26.3928C28.6539 25.9293 29.1558 25.4443 29.6289 24.9305C30.1019 24.4168 29.3364 23.6551 28.8633 24.1689L28.8705 24.1653Z" fill="black"/>
<path d="M14.9287 14.5976C13.8598 15.6503 12.5598 16.4299 11.4331 17.4144C11.2056 17.612 11.249 17.9713 11.4331 18.176C12.2673 19.0994 13.1917 19.9257 14.1487 20.7162C14.3726 20.903 14.694 20.9353 14.9142 20.7162C15.1056 20.5257 15.1417 20.1413 14.9142 19.9545C13.9537 19.1641 13.0328 18.3377 12.1987 17.4144V18.176C13.329 17.1916 14.6253 16.412 15.6942 15.3593C16.189 14.8707 15.4234 14.109 14.9287 14.5976Z" fill="black"/>
<path d="M15.831 13.2395C16.351 12.9198 17.0335 12.5533 17.6619 12.5677C18.236 12.5821 18.4166 13.2755 18.6007 13.7138C18.8535 14.3102 19.1677 14.8743 19.7816 15.1617C20.5074 15.503 21.3019 15.3198 22.053 15.5174C22.7138 15.6934 23.1941 16.2252 23.566 16.7713C23.7719 17.0767 23.956 17.3928 24.133 17.7162C24.3099 18.0395 24.4724 18.3916 24.8516 18.4815C25.6027 18.6611 26.3466 17.7413 26.9244 17.4C27.1916 17.2419 27.596 17.0731 27.9066 17.2096C28.2388 17.3533 28.3255 17.7988 28.3832 18.115C28.5566 19.0347 28.4374 20.0156 28.1016 20.8886C27.9535 21.2731 27.7477 21.7365 27.4191 22.006C27.2349 22.1569 26.7149 22.297 26.7438 21.9054C26.7944 21.212 25.711 21.2156 25.6605 21.9054C25.5955 22.8072 26.5705 23.4108 27.3938 23.2096C28.3544 22.9797 28.8671 21.9449 29.1741 21.1042C29.6905 19.6922 30.0155 16.2647 27.7982 16.0994C26.7582 16.0204 26.0649 16.7497 25.2632 17.2671L25.2019 17.3066C25.0321 17.3605 25.0357 17.4072 25.2163 17.4539C25.1802 17.3785 25.1332 17.303 25.0935 17.2312C24.9888 17.0407 24.8841 16.8539 24.7721 16.6707C24.5266 16.2647 24.2594 15.8695 23.9416 15.5174C23.3132 14.8168 22.5224 14.4431 21.5871 14.3713C21.1574 14.3389 20.6663 14.3928 20.2619 14.2096C19.9044 14.0443 19.7419 13.6671 19.5974 13.3294C19.2724 12.5713 18.9294 11.6946 18.0085 11.5258C17.0877 11.3569 16.0405 11.8419 15.2749 12.3126C14.6827 12.6755 15.228 13.6096 15.8202 13.2431L15.831 13.2395Z" fill="black"/>
<path d="M27.9653 22.6491C28.8031 23.8706 29.5181 25.164 30.1067 26.5221C30.2186 26.7808 30.6267 26.8598 30.8469 26.7161L31.97 25.976C32.2733 25.7748 32.7789 25.5592 32.8836 25.1784C32.9992 24.7652 32.6706 24.4419 32.4467 24.1401C32.2228 23.8383 31.9917 23.5077 31.775 23.1844C30.9156 21.9161 30.1139 20.5976 29.4747 19.2036C29.3519 18.9377 28.9692 18.873 28.7344 19.0095C28.46 19.1676 28.4167 19.4802 28.5394 19.7461C28.9836 20.7161 29.5108 21.6503 30.0778 22.5557C30.3631 23.0155 30.6628 23.4682 30.9697 23.9173C31.2767 24.3664 31.6125 24.758 31.8869 25.2036L31.8147 24.9305L31.8219 25.0347L31.8942 24.7616L31.8508 24.8227L32.0458 24.6287C31.4897 25.0455 30.8794 25.4012 30.2981 25.7856L31.0383 25.9796C30.4533 24.6215 29.7383 23.3245 28.8969 22.1066C28.5069 21.5389 27.5681 22.0742 27.9617 22.6491H27.9653Z" fill="black"/>
<path d="M30.1026 26.5221C30.4817 27.079 30.8537 27.7544 31.5795 27.8874C32.0706 27.9772 32.569 27.873 32.9373 27.5281C33.2551 27.2299 33.4103 26.7844 33.4248 26.3568C33.4428 25.8431 33.2298 25.3472 32.9951 24.9053C32.8615 24.6574 32.4931 24.5568 32.2548 24.7113C32.002 24.873 31.919 25.182 32.0598 25.4478C32.1103 25.5448 32.1609 25.6419 32.2078 25.7425C32.2331 25.7963 32.2295 25.7928 32.2006 25.7281C32.2115 25.7532 32.2223 25.7784 32.2295 25.8035C32.2476 25.8538 32.2656 25.9077 32.2837 25.958C32.3017 26.0083 32.3126 26.0622 32.3234 26.1161C32.3306 26.1413 32.3342 26.17 32.3378 26.1951C32.3306 26.1197 32.327 26.1125 32.3378 26.1736C32.3415 26.2598 32.3415 26.3389 32.3378 26.4251C32.3306 26.4826 32.3342 26.4718 32.3451 26.382C32.3415 26.4035 32.3378 26.4251 32.3306 26.4502C32.3198 26.4934 32.309 26.5365 32.2945 26.5796C32.2873 26.6011 32.2801 26.6227 32.2728 26.6443C32.3053 26.5688 32.309 26.5544 32.2873 26.6083C32.2656 26.6478 32.244 26.6838 32.2187 26.7233C32.1862 26.77 32.1934 26.7592 32.244 26.6945C32.2295 26.7125 32.2151 26.7269 32.2006 26.7448C32.1862 26.7592 32.1681 26.7772 32.1537 26.7916C32.1103 26.8275 32.1212 26.8203 32.1826 26.77C32.1753 26.7628 32.0742 26.849 32.0598 26.8419C32.1356 26.8131 32.1428 26.8059 32.0887 26.8275C32.0706 26.8347 32.0526 26.8383 32.0381 26.8419C32.0201 26.8454 32.002 26.849 31.984 26.8526C31.9262 26.8634 31.937 26.8598 32.0201 26.849C32.0201 26.849 31.8865 26.849 31.8756 26.849C31.8503 26.849 31.8287 26.849 31.8034 26.8419C31.8865 26.8526 31.8973 26.8562 31.8395 26.8419C31.7926 26.8275 31.7456 26.8167 31.6987 26.8023C31.594 26.7736 31.7853 26.8562 31.6878 26.7951C31.6373 26.7664 31.5903 26.6981 31.6951 26.8095C31.6445 26.7592 31.5867 26.7125 31.5398 26.6586C31.5145 26.6299 31.4892 26.6047 31.4676 26.576C31.4531 26.558 31.4387 26.5437 31.4278 26.5257C31.3917 26.4826 31.399 26.4934 31.4531 26.558C31.4206 26.4826 31.3448 26.4143 31.2978 26.346C31.2148 26.2239 31.1317 26.0981 31.0487 25.976C30.8898 25.7425 30.5648 25.6167 30.3084 25.782C30.0737 25.9329 29.9437 26.2706 30.1134 26.5185L30.1026 26.5221Z" fill="black"/>
<path d="M22.4468 10.5485C22.5262 11.0048 22.6093 11.4575 22.7032 11.9102C22.779 12.273 22.8187 12.6934 22.974 13.0311C23.1004 13.3078 23.2448 13.5772 23.382 13.8467C23.9526 14.982 24.5268 16.1174 25.1334 17.2311C25.4657 17.8419 26.4009 17.2994 26.0687 16.6886C25.4729 15.5928 24.9059 14.479 24.3462 13.3653C24.209 13.0886 24.0104 12.8012 23.9165 12.5066C23.902 12.4671 23.9093 12.388 23.8876 12.3018C23.837 12.0754 23.7901 11.8491 23.7432 11.6227C23.6493 11.17 23.5662 10.7174 23.4868 10.2611C23.4362 9.97364 23.0823 9.81196 22.8187 9.88382C22.5154 9.96645 22.389 10.2575 22.4395 10.5485H22.4468Z" fill="black"/>
<path d="M22.6992 10.7856C23.3059 11.2706 24.1509 11.6443 24.5806 12.3126C24.8081 12.6683 25.0103 13.0419 25.2234 13.4048C25.9023 14.5617 26.5956 15.715 27.2167 16.9006C27.5381 17.515 28.4734 16.9724 28.152 16.3581C27.52 15.1509 26.8159 13.9796 26.1261 12.8048C25.9203 12.4527 25.7253 12.0898 25.5014 11.7485C24.9995 10.976 24.1617 10.5808 23.4611 10.0239C23.2336 9.84071 22.9195 9.80119 22.6956 10.0239C22.5078 10.2108 22.4645 10.6024 22.6956 10.7856H22.6992Z" fill="black"/>
<path d="M23.9744 12.2623C24.1803 12.2012 24.3572 12.0719 24.4619 11.885C24.5558 11.7162 24.5594 11.5114 24.4619 11.3425C24.3644 11.1737 24.1875 11.0874 23.9925 11.0767C23.7 11.0587 23.3858 11.188 23.1872 11.4036C23.0392 11.5653 22.9886 11.788 23.0753 11.9928C23.1547 12.1832 23.3533 12.3305 23.57 12.3234C23.8661 12.3126 24.1622 12.1976 24.3608 11.9749C24.4403 11.885 24.4944 11.788 24.5089 11.6659C24.5233 11.5437 24.5017 11.4395 24.4439 11.321C24.2814 10.9796 24.0719 10.6635 23.8336 10.3689C23.7181 10.2252 23.5917 10.0994 23.44 9.99163C23.2161 9.83354 22.9344 9.81917 22.6925 9.94133C22.4506 10.0635 22.3458 10.4443 22.4975 10.6779C22.6636 10.9329 22.9706 11.0084 23.2378 10.8719C23.2414 10.8719 23.245 10.8683 23.2522 10.8647L23.1222 10.9186C23.1222 10.9186 23.1403 10.915 23.1511 10.9114L23.0067 10.9293C23.0067 10.9293 23.0247 10.9293 23.0356 10.9293L22.8911 10.9114C22.9092 10.9114 22.9308 10.9186 22.9489 10.9293L22.8189 10.8755C22.8514 10.8898 22.8803 10.9078 22.9092 10.9293L22.8008 10.8467C22.9092 10.9329 23.0031 11.0407 23.0861 11.1485L23.0031 11.0407C23.2017 11.2958 23.3714 11.5725 23.5122 11.8635L23.5953 11.2096C23.57 11.2347 23.5483 11.2599 23.5194 11.2814L23.6278 11.1988C23.5881 11.2276 23.5483 11.2527 23.5014 11.2743L23.6314 11.2204C23.5844 11.2383 23.5375 11.2527 23.4906 11.2599L23.635 11.2419C23.6133 11.2419 23.5917 11.2455 23.5736 11.2455L23.9564 12.1653C23.9744 12.1437 23.9961 12.1258 24.0178 12.1078L23.9094 12.1904C23.9492 12.1581 23.9925 12.1365 24.0394 12.115L23.9094 12.1689C23.9492 12.1545 23.9889 12.1437 24.0322 12.1365L23.8878 12.1545C23.9239 12.1509 23.96 12.1509 23.9961 12.1545L23.5267 11.3425C23.5267 11.3425 23.5122 11.3641 23.505 11.3749L23.5881 11.2671C23.57 11.2886 23.5556 11.3066 23.5339 11.321L23.6422 11.2383C23.6422 11.2383 23.6097 11.2599 23.5917 11.2671L23.7217 11.2132C23.7217 11.2132 23.6964 11.224 23.6856 11.2276C23.5519 11.2671 23.4328 11.3569 23.3606 11.4755C23.2883 11.594 23.2631 11.7629 23.3064 11.8922C23.3967 12.1653 23.6819 12.3557 23.9744 12.2695V12.2623Z" fill="black"/>
<path d="M20.764 30.5318C20.9084 31.4516 21.0781 32.5186 20.6773 33.3989C20.2765 34.2791 19.2292 34.757 18.3301 35.0516C16.1706 35.7666 13.809 36.0396 11.5448 36.1725C10.8515 36.2121 10.8478 37.2899 11.5448 37.2504C12.8773 37.1713 14.2062 37.024 15.5206 36.8013C16.8351 36.5785 18.164 36.3198 19.3917 35.7989C20.4281 35.3606 21.3381 34.6995 21.7498 33.618C22.1615 32.5366 21.9809 31.3474 21.8076 30.2444C21.6992 29.5618 20.6556 29.8528 20.764 30.5318Z" fill="black"/>
<path d="M3.95076 39.2228C3.06604 39.8515 2.18132 40.4982 1.54937 41.3928C0.848819 42.3809 0.700764 43.5916 0.541875 44.7593C0.173542 47.3856 -0.00701389 50.0371 0.000208333 52.6922C0.000208333 52.9976 0.249375 53.2096 0.541875 53.2312C3.65465 53.4503 6.77826 53.533 9.89826 53.4683C10.5555 53.4539 11.191 53.4 11.2922 52.6276C11.3933 51.8551 11.3499 51.0898 11.3752 50.3318C11.4222 48.8587 11.5666 47.3497 11.4799 45.8767C11.4005 44.5365 10.801 43.0922 9.36743 42.7365C8.69215 42.5713 8.40326 43.6096 9.07854 43.7749C10.5988 44.1485 10.4183 46.1677 10.3822 47.3497L10.3063 49.8L10.2666 51.0252L10.2485 51.5497C10.2413 51.7473 10.1727 52.0599 10.2269 52.2503C10.1691 52.4335 10.2052 52.4731 10.3388 52.3725C10.2485 52.3725 10.1619 52.3761 10.0716 52.3797C9.86215 52.3833 9.65632 52.3868 9.44687 52.3904C9.0316 52.3976 8.61632 52.4012 8.19743 52.4012C7.36687 52.4012 6.53271 52.3976 5.70215 52.3797C3.97965 52.3437 2.25715 52.2647 0.534653 52.1425L1.07632 52.6815C1.0691 50.2527 1.21354 47.8276 1.5241 45.4168C1.65771 44.3641 1.72993 43.1605 2.27882 42.2228C2.79882 41.3389 3.6691 40.7246 4.48882 40.1425C5.05215 39.7437 4.51049 38.806 3.94354 39.212L3.95076 39.2228Z" fill="black"/>
<path d="M3.74829 45.2336L9.09996 45.3234C9.79691 45.3342 9.79691 44.2563 9.09996 44.2455L3.74829 44.1557C3.05135 44.1449 3.05135 45.2228 3.74829 45.2336Z" fill="black"/>
<path d="M5.90039 47.9245C7.53984 48.1796 9.21539 47.9353 10.8584 47.8024C11.1509 47.7772 11.4001 47.5724 11.4001 47.2635C11.4001 46.9904 11.1509 46.6994 10.8584 46.7245C10.0676 46.7892 9.27317 46.8611 8.48234 46.915C7.6915 46.9689 6.94761 47.0012 6.18928 46.8862C5.90039 46.8431 5.60789 46.9581 5.52122 47.2635C5.449 47.5186 5.60789 47.8814 5.90039 47.9281V47.9245Z" fill="black"/>
<path d="M5.96647 50.6192C7.49397 50.7341 9.02869 50.7126 10.5526 50.5545C10.8451 50.5258 11.0942 50.3282 11.0942 50.0156C11.0942 49.7461 10.8451 49.4479 10.5526 49.4767C9.02869 49.6347 7.49397 49.6563 5.96647 49.5413C5.67397 49.5198 5.4248 49.8036 5.4248 50.0802C5.4248 50.3892 5.67397 50.5976 5.96647 50.6192Z" fill="black"/>
<path d="M30.8755 27.8695C30.8286 29.3533 30.89 30.8838 31.1789 32.3461C31.298 32.9461 31.5328 33.5282 31.9733 33.9665C32.4572 34.4479 33.1144 34.7497 33.7247 35.0443C35.05 35.6839 36.4439 36.1833 37.8739 36.5318C39.3039 36.8803 40.8242 37.1066 42.2072 37.6815C46.8728 39.6252 49.3717 44.5689 50.2419 49.2755C50.8667 52.6455 50.8053 56.1018 50.7547 59.5114C50.7439 60.2048 51.8272 60.2048 51.8381 59.5114C51.9211 53.8922 51.9681 47.9318 49.1622 42.8659C48.0175 40.7964 46.4286 38.9389 44.4317 37.6455C43.3736 36.9593 42.2036 36.4707 40.983 36.1437C39.535 35.7557 38.0508 35.5222 36.6208 35.0551C35.8156 34.7928 35.0283 34.4767 34.2664 34.1102C33.62 33.7976 32.7822 33.4707 32.4428 32.7952C32.1033 32.1198 32.0817 31.2431 32.0203 30.5066C31.9444 29.6264 31.9264 28.7461 31.9517 27.8659C31.9733 27.1725 30.89 27.1725 30.8683 27.8659L30.8755 27.8695Z" fill="black"/>
<path d="M22.0139 32.3784C25.1736 32.4862 28.3406 32.4143 31.4931 32.1556C32.1828 32.0981 32.19 31.0203 31.4931 31.0778C28.3406 31.3365 25.1773 31.4083 22.0139 31.3005C21.317 31.2754 21.317 32.3532 22.0139 32.3784Z" fill="black"/>
<path d="M7.48604 53.3246C7.17909 55.4623 10.2883 54.7904 11.4944 54.7473C13.4552 54.6755 15.416 54.715 17.3733 54.8048C21.2985 54.988 25.213 55.3761 29.1419 55.5054C31.3627 55.5809 33.5871 55.5665 35.8044 55.394C36.3208 55.3545 36.5663 54.6755 36.0788 54.388C34.2949 53.3497 32.4966 52.3329 30.6946 51.3234C26.4408 48.9377 22.158 46.6024 17.8391 44.3353C14.9538 42.8228 12.0541 41.3389 9.12909 39.8982C8.74993 39.7114 8.34187 39.9413 8.31298 40.3653C8.22632 41.6731 8.14326 42.9809 8.09632 44.2922C8.07104 44.9856 9.15437 44.9856 9.17965 44.2922C9.22659 42.9844 9.31326 41.6731 9.39632 40.3653L8.5802 40.8324C13.5996 43.3006 18.5541 45.9018 23.4724 48.5713C26.8994 50.4324 30.3083 52.3294 33.6919 54.2623C34.3058 54.6144 34.9196 54.9629 35.5299 55.3186L35.8044 54.3126C28.5966 54.8731 21.4177 53.6982 14.2135 53.63C13.2205 53.6192 12.2238 53.63 11.2308 53.6731C10.9852 53.6838 8.48271 53.9353 8.52965 53.6048C8.56937 53.3138 8.45743 53.03 8.15048 52.9401C7.8977 52.8683 7.52576 53.03 7.48243 53.3174L7.48604 53.3246Z" fill="black"/>
<path d="M49.3204 57.3161C46.0487 55.4694 42.759 53.6515 39.4693 51.8371C35.7029 49.764 31.9329 47.6982 28.1593 45.6431C24.5662 43.685 20.9731 41.7341 17.3765 39.7868C14.614 38.2886 11.8479 36.794 9.08175 35.303C7.83953 34.6311 6.60814 33.9161 5.34425 33.2874C5.3262 33.2802 5.31175 33.2694 5.2937 33.2586C4.9362 33.0646 4.4812 33.3054 4.47759 33.7257C4.45953 37.2503 4.3187 40.7712 4.04786 44.2886C3.9937 44.982 5.07703 44.9784 5.1312 44.2886C5.39842 40.7748 5.54286 37.2503 5.56092 33.7257L4.74481 34.1928C5.75953 34.7389 6.77425 35.285 7.78536 35.8311C10.3854 37.2323 12.9854 38.6371 15.5854 40.0455C19.1098 41.9533 22.6343 43.8646 26.1551 45.7832C29.9612 47.8562 33.7637 49.9329 37.559 52.0203C40.9462 53.8814 44.3298 55.7533 47.699 57.6467C48.0565 57.8479 48.414 58.0491 48.7715 58.2503C49.3781 58.5916 49.927 57.661 49.3168 57.3197L49.3204 57.3161Z" fill="black"/>
<path d="M48.7643 57.3305C44.5537 57.8156 40.3034 57.4383 36.082 57.3413C32.7851 57.2623 29.4845 57.2371 26.1876 57.2227C20.0704 57.2012 13.9531 57.2407 7.83592 57.3126C6.54676 57.3269 5.25759 57.3449 3.96842 57.3629L4.51009 57.9018L4.54981 53.3389C4.55704 52.6455 3.4737 52.6455 3.46648 53.3389L3.42676 57.9018C3.42676 58.1892 3.67592 58.4443 3.96842 58.4407C7.57954 58.3832 11.1943 58.3473 14.8054 58.3221C21.5112 58.2754 28.2206 58.2575 34.9265 58.3904C39.527 58.4838 44.1781 58.9365 48.7643 58.4048C49.4504 58.3257 49.4576 57.2479 48.7643 57.3269V57.3305Z" fill="black"/>
<path d="M12.7506 38.3928L12.1367 39.3808C12.0645 39.4994 12.0464 39.6646 12.0825 39.7976C12.1186 39.9305 12.2125 40.0599 12.3317 40.1209C12.4581 40.1856 12.6097 40.2215 12.7506 40.1748C12.8914 40.1281 12.9961 40.0491 13.0756 39.9269L13.6895 38.9389C13.7617 38.8203 13.7797 38.6551 13.7436 38.5221C13.7075 38.3892 13.6136 38.2599 13.4945 38.1988C13.3681 38.1341 13.2164 38.0982 13.0756 38.1449C12.9347 38.1916 12.83 38.2706 12.7506 38.3928Z" fill="black"/>
<path d="M18.2651 41.0981C18.1026 41.3065 17.9509 41.5185 17.8245 41.752C17.6981 41.9856 17.597 42.2299 17.5176 42.4778C17.4742 42.6071 17.5031 42.776 17.5717 42.8945C17.6403 43.0131 17.7667 43.1137 17.8967 43.1424C18.1928 43.2107 18.4709 43.0526 18.5648 42.7652C18.6009 42.6574 18.637 42.5496 18.6839 42.4454L18.6298 42.5748C18.7526 42.2874 18.9114 42.0143 19.1064 41.7664L19.0234 41.8742L19.0342 41.8598C19.0884 41.8095 19.1245 41.752 19.1462 41.6874C19.1787 41.6227 19.1967 41.5544 19.1931 41.479C19.1931 41.346 19.1353 41.188 19.0342 41.0981C18.9331 41.0083 18.7959 40.9329 18.6514 40.94C18.5178 40.9472 18.3553 40.9868 18.2687 41.0981H18.2651Z" fill="black"/>
<path d="M23.7798 44.1054L23.1189 45.2946C23.0503 45.4204 23.0251 45.5713 23.0648 45.7114C23.1009 45.8371 23.1948 45.9737 23.3139 46.0347C23.5667 46.1677 23.9098 46.1066 24.0542 45.8407L24.7151 44.6515C24.7837 44.5258 24.8089 44.3749 24.7692 44.2347C24.7331 44.109 24.6392 43.9725 24.5201 43.9114C24.2673 43.7785 23.9242 43.8395 23.7798 44.1054Z" fill="black"/>
<path d="M29.3443 47.4431L28.8785 48.4275C28.8387 48.4886 28.8171 48.5569 28.8135 48.6287C28.799 48.7006 28.799 48.7724 28.8243 48.8443C28.8604 48.97 28.9543 49.1066 29.0735 49.1676C29.1999 49.2323 29.3515 49.2682 29.4924 49.2215C29.6187 49.182 29.756 49.0994 29.8174 48.9736L30.2832 47.9892C30.3229 47.9281 30.3446 47.8598 30.3482 47.788C30.3626 47.7161 30.3626 47.6443 30.3374 47.5724C30.3012 47.4467 30.2074 47.3101 30.0882 47.2491C29.9618 47.1844 29.8101 47.1485 29.6693 47.1952C29.5429 47.2347 29.4057 47.3173 29.3443 47.4431Z" fill="black"/>
<path d="M35.0563 50.63L34.5291 51.6216C34.4605 51.7473 34.4352 51.8946 34.4749 52.0384C34.511 52.1641 34.6049 52.3006 34.7241 52.3617C34.8505 52.4264 35.0022 52.4623 35.143 52.4156C35.273 52.3725 35.3994 52.2934 35.468 52.1677L35.9952 51.1761C36.0638 51.0503 36.0891 50.903 36.0494 50.7593C36.0133 50.6336 35.9194 50.497 35.8002 50.436C35.6738 50.3713 35.5222 50.3354 35.3813 50.3821C35.2513 50.4252 35.1249 50.5042 35.0563 50.63Z" fill="black"/>
<path d="M40.6648 53.7629L40.1123 54.8192C40.0473 54.9485 40.0184 55.0922 40.0582 55.236C40.0943 55.3617 40.1882 55.4982 40.3073 55.5593C40.4337 55.624 40.5854 55.6599 40.7262 55.6132C40.8562 55.5701 40.9862 55.491 41.0512 55.3653L41.6037 54.309C41.6687 54.1797 41.6976 54.036 41.6579 53.8922C41.6218 53.7665 41.5279 53.63 41.4087 53.5689C41.2823 53.5042 41.1307 53.4683 40.9898 53.515C40.8598 53.5581 40.7298 53.6372 40.6648 53.7629Z" fill="black"/>
</g>
<defs>
<clipPath id="clip0_1373_3591">
<rect width="52" height="60" fill="white"/>
</clipPath>
</defs>
</svg>
