<svg width="50" height="50" viewBox="0 0 50 50" fill="none" xmlns="http://www.w3.org/2000/svg">
<path d="M35.0964 13.1367H14.9036C14.435 13.1367 13.9856 13.3229 13.6542 13.6542C13.3229 13.9856 13.1367 14.435 13.1367 14.9036V35.0964C13.1367 35.565 13.3229 36.0144 13.6542 36.3458C13.9856 36.6771 14.435 36.8633 14.9036 36.8633H35.0964C35.565 36.8633 36.0144 36.6771 36.3458 36.3458C36.6771 36.0144 36.8633 35.565 36.8633 35.0964V14.9036C36.8633 14.435 36.6771 13.9856 36.3458 13.6542C36.0144 13.3229 35.565 13.1367 35.0964 13.1367ZM33.3901 24.2428L25.7572 16.6099V14.6512H27.7159L35.3488 22.2841V24.2428H33.3901ZM25.7572 18.7503L31.2497 24.2428H25.7572V18.7503ZM35.3488 14.9036V20.1436L29.8564 14.6512H35.0964C35.1634 14.6512 35.2276 14.6778 35.2749 14.7251C35.3222 14.7724 35.3488 14.8366 35.3488 14.9036ZM14.9036 14.6512H24.2428V24.2428H14.6512V14.9036C14.6512 14.8366 14.6778 14.7724 14.7251 14.7251C14.7724 14.6778 14.8366 14.6512 14.9036 14.6512ZM22.2841 35.3488L14.6512 27.7159V25.7572H16.6099L24.2428 33.3901V35.3488H22.2841ZM24.2428 31.2497L18.7503 25.7572H24.2428V31.2497ZM14.6512 35.0964V29.8564L20.1436 35.3488H14.9036C14.8366 35.3488 14.7724 35.3222 14.7251 35.2749C14.6778 35.2276 14.6512 35.1634 14.6512 35.0964ZM35.0964 35.3488H25.7572V33.0771V25.7572H35.3488V35.0964C35.3488 35.1634 35.3222 35.2276 35.2749 35.2749C35.2276 35.3222 35.1634 35.3488 35.0964 35.3488Z" fill="black"/>
</svg>
