<svg width="51" height="50" viewBox="0 0 51 50" fill="none" xmlns="http://www.w3.org/2000/svg">
<path d="M39.2539 6.8197C40.674 6.67029 42.1539 7.02582 43.2803 7.8822C44.3709 8.71157 45.1518 10.0274 45.2217 11.8773C45.0872 12.0669 44.9916 12.2465 44.9287 12.4291C44.8523 12.651 44.8289 12.8566 44.8223 13.0531C44.8092 13.4427 44.8496 13.7508 44.7627 14.2738C44.7329 14.3234 44.6644 14.405 44.5264 14.5219C44.4511 14.5855 44.3679 14.6503 44.2773 14.7201C44.1891 14.7881 44.0924 14.862 44.002 14.9359C43.834 15.0733 43.6247 15.2593 43.5137 15.4838C43.5029 15.5055 43.4936 15.5286 43.4844 15.5521C43.4515 15.555 43.4186 15.5598 43.3857 15.5658C43.1423 15.6099 42.9242 15.734 42.748 15.8461C42.402 16.0662 42.1457 16.272 41.8398 16.3724L41.7051 16.4086C38.8718 17.0119 36.492 15.6531 34.958 13.5092C34.4517 11.4008 34.8446 9.81916 35.668 8.72986C36.508 7.61872 37.8342 6.96912 39.2539 6.8197ZM39.5156 8.40369C38.8176 8.28624 38.1019 8.66863 37.5596 9.19763C37.0037 9.73994 36.547 10.5105 36.3721 11.3461C36.1956 12.1892 36.3038 13.1157 36.9092 13.9203L36.9971 14.0375L37.1396 14.0697C38.688 14.4254 39.9285 14.4367 40.7783 14.0033C41.2165 13.7798 41.5415 13.4428 41.7383 13.0013C41.9318 12.5673 41.992 12.0554 41.9473 11.4886V11.4877L41.9326 11.4095C41.9129 11.3382 41.8804 11.2897 41.874 11.2797C41.8543 11.2487 41.8325 11.2212 41.8154 11.2006C41.7805 11.1583 41.7366 11.1109 41.6934 11.0658C41.5887 10.9567 41.506 10.876 41.3809 10.7445C41.2689 10.6268 41.1639 10.5105 41.085 10.4066C41.0397 10.3471 41.0139 10.3041 40.999 10.2777L40.9814 10.2445L40.9395 10.0502C40.7122 9.10571 40.2197 8.52234 39.5156 8.40369Z" stroke="black" stroke-width="0.8"/>
<path d="M25.4355 39.0397C25.4355 39.0397 25.439 39.0404 25.4453 39.0416C25.4516 39.0429 25.4605 39.0443 25.4717 39.0475C25.4952 39.0543 25.5261 39.0654 25.5645 39.0817C25.642 39.1146 25.7389 39.1654 25.8535 39.234C26.0827 39.371 26.3615 39.569 26.668 39.8141C27.2804 40.304 27.9784 40.9624 28.5732 41.65C29.175 42.3457 29.6415 43.0366 29.8311 43.5914C29.9255 43.8677 29.9367 44.0694 29.9014 44.2067C29.8784 44.2957 29.8304 44.3791 29.7275 44.4537C28.553 44.1392 27.919 43.2795 27.2412 42.2604L26.8076 41.608L26.5332 42.3424C26.0807 43.5547 26.2851 44.607 26.4746 45.61C26.6554 46.5664 26.8296 47.5071 26.5674 48.6656C26.5242 48.6762 26.4884 48.6806 26.458 48.6813C26.3705 48.6833 26.3414 48.6697 26.2031 48.6549C26.0834 48.6421 25.8854 48.6358 25.6924 48.776C25.6397 48.8143 25.5943 48.8603 25.5527 48.9108C25.4103 48.8271 25.2543 48.8043 25.1416 48.7965C25.0223 48.7882 24.896 48.7934 24.7959 48.7975C24.773 48.7984 24.7512 48.7967 24.7305 48.7975C24.4332 48.2707 24.2665 47.5372 24.2178 46.7614C24.1638 45.9025 24.256 45.0589 24.4131 44.5114L24.5234 44.1246L24.1367 44.0162C23.7512 43.908 23.4002 44.055 23.1348 44.2155C22.8721 44.3742 22.5944 44.6098 22.3613 44.7916C21.8314 45.2051 21.457 45.3983 21.0635 45.2321L21.0127 45.2115L20.9619 45.2037L21.0078 44.4938C20.726 44.4215 20.3549 44.3391 19.8535 44.1315C19.8548 43.4831 20.1904 42.9881 20.6504 42.4586C20.8928 42.1797 21.199 41.8605 21.4414 41.5465C21.6159 41.3205 21.7771 41.0712 21.8936 40.7926C22.2976 40.8568 22.6449 40.8051 22.9541 40.6588C23.3337 40.4791 23.6148 40.1752 23.8438 39.9205C24.3253 39.3851 24.6668 38.9773 25.4355 39.0397Z" stroke="black" stroke-width="0.8"/>
<path d="M25.9297 0.400391C27.7777 0.59676 29.3407 1.77526 30.2207 3.33789C31.1035 4.9055 31.2757 6.81628 30.3965 8.4502C30.3481 8.5402 30.2782 8.62702 30.1807 8.73047C30.0969 8.81928 29.9559 8.95702 29.8477 9.08203C29.6418 9.31969 29.4561 9.61667 29.4043 10.0381C28.0052 10.5363 25.8838 10.577 24.0879 9.95312C22.2676 9.32067 20.8766 8.05053 20.8291 5.97168V5.76758C20.875 3.36135 22.3188 0.991803 25.2686 0.400391H25.9297ZM27.2012 3.32812C26.5417 2.62365 25.7818 2.34305 25.04 2.4209C24.3134 2.49723 23.6643 2.91076 23.1885 3.47461C22.2447 4.59324 21.8718 6.44796 22.9902 7.92285L23.0635 8.01953L23.1787 8.05957C24.4457 8.4962 25.7353 8.45199 26.6797 7.99902C27.1545 7.77121 27.553 7.43382 27.8018 6.99121C28.053 6.54418 28.1357 6.01611 28.0205 5.44238L28.0137 5.40527L27.999 5.37109L27.915 5.2041C27.8198 5.04573 27.6964 4.91149 27.5918 4.80469C27.4312 4.64068 27.3093 4.53321 27.2021 4.40332C27.101 4.28067 27.0722 4.20341 27.0684 4.15234C27.0656 4.11548 27.0709 4.02581 27.2119 3.8623L27.4463 3.58984L27.2012 3.32812Z" stroke="black" stroke-width="0.8"/>
<path d="M32.2266 18.5486C32.9434 18.1992 33.9899 18.2098 34.8291 18.4832C35.2618 18.6242 35.5896 18.8201 35.7725 19.0212C35.9409 19.2065 35.9671 19.3639 35.8994 19.5281L35.5176 20.4519L36.4307 20.0466C36.928 19.8261 37.2601 19.8717 37.6768 19.9626C37.9156 20.0148 38.1879 20.0833 38.5127 20.114C38.5117 20.1282 38.5089 20.1424 38.5088 20.157L38.5049 20.6169L38.96 20.5574C39.3453 20.5075 39.8002 20.4825 40.3086 20.45C40.8096 20.4179 41.3538 20.3791 41.8877 20.2996C42.8628 20.1543 43.8885 19.8631 44.583 19.1472C45.7733 19.3337 46.681 19.7804 47.3896 20.4119C48.1427 21.083 48.6931 21.9821 49.1074 23.0535C49.9401 25.2069 50.1929 27.9557 50.5098 30.7371V30.8962C50.3843 31.2696 50.3318 31.6932 50.2988 32.0955C50.2618 32.548 50.2483 32.9567 50.1992 33.3582C50.1508 33.7542 50.0746 34.0634 49.9473 34.28C49.8378 34.4661 49.6877 34.5885 49.4375 34.6375C46.2285 34.5201 42.6331 34.1413 39.833 34.4031C37.479 34.623 35.2559 35.0018 33.1992 35.0798C31.243 35.1541 29.5671 34.9428 28.2666 34.1042C28.249 31.594 28.1555 28.7293 28.4795 26.0876C28.7984 23.4882 29.5162 21.1975 31.0342 19.7087C31.0517 19.7431 31.0729 19.8017 31.0693 19.908L31.0176 21.4402L31.8115 20.1277C32.067 19.7051 32.058 19.3745 32.0654 19.1306C32.0689 19.0157 32.0748 18.9275 32.1006 18.8318C32.1211 18.7554 32.1574 18.6634 32.2266 18.5486ZM44.9785 21.0017C43.4998 21.6996 41.7233 22.1624 40.0293 22.365C38.4355 22.5556 36.9496 22.512 35.8721 22.238L35.6621 22.1794C35.5705 22.1521 35.4434 22.0901 35.2852 21.9929C35.131 21.8983 34.9701 21.7853 34.8086 21.6716C34.6534 21.5624 34.4895 21.4455 34.3506 21.3621C34.2813 21.3205 34.203 21.278 34.125 21.2478C34.0636 21.2241 33.9251 21.176 33.7705 21.2146C32.9598 21.4156 32.3646 22.099 31.9355 22.9265C31.5006 23.7655 31.1953 24.8301 31.002 25.9363C30.6171 28.1376 30.6538 30.6273 31.085 32.0398L31.165 32.3025L31.4395 32.322C31.8037 32.3478 32.2513 32.3051 32.6816 32.2556C33.1279 32.2043 33.5647 32.1451 33.9609 32.1208C34.3694 32.0959 34.6559 32.1157 34.8184 32.1785C34.8887 32.2057 34.9046 32.2286 34.9062 32.2312C34.9075 32.2332 34.9105 32.2397 34.9131 32.2546C34.9158 32.271 34.9185 32.3011 34.9121 32.3474L34.75 33.5095L35.5879 32.6873C36.466 31.8258 37.4177 31.9324 38.4385 32.1394C38.9252 32.2381 39.4731 32.3722 39.9619 32.3669C40.2592 32.3637 40.5505 32.3063 40.8193 32.1667C40.8507 32.1923 40.8863 32.2163 40.9287 32.2351C40.9299 32.2356 40.9314 32.2356 40.9326 32.2361C40.9289 32.2811 40.929 32.3296 40.9395 32.3806C40.974 32.5491 41.0859 32.6669 41.2119 32.7302C41.3242 32.7866 41.4452 32.801 41.5469 32.8015H41.6104L41.6709 32.782C41.9751 32.6842 42.2631 32.6242 42.542 32.5886L42.5498 32.5925L42.5488 32.5876C43.2577 32.4982 43.9123 32.5804 44.6523 32.7068C45.69 32.884 46.8917 33.1428 48.5342 33.0398L48.8926 33.0173L48.9082 32.6589C49.0211 30.1068 49.0441 27.5995 48.5928 25.5417C48.1397 23.4763 47.19 21.7858 45.3037 20.9939L45.1396 20.9255L44.9785 21.0017Z" stroke="black" stroke-width="0.8"/>
<path d="M6.15332 38.1826C6.17511 38.2704 6.22088 38.389 6.32715 38.4863C6.45693 38.6052 6.61649 38.6394 6.75781 38.6318C6.8832 38.6251 7.00916 38.584 7.13086 38.5322L7.13184 38.5332C7.40619 38.4287 7.5967 38.3716 7.72559 38.3418C7.72931 38.3755 7.73462 38.4127 7.74609 38.4502C7.78519 38.5777 7.8783 38.7043 8.03809 38.7695V38.7705C8.18837 38.8319 8.36546 38.847 8.5166 38.8516C8.67808 38.8564 8.8636 38.8492 9.05371 38.8389C9.4447 38.8177 9.87459 38.7838 10.3115 38.7891C10.7483 38.7943 11.1524 38.839 11.4785 38.959C11.7518 39.0595 11.9555 39.2071 12.0879 39.4209C11.9635 40.0514 11.9819 40.7971 12.0352 41.5342C12.0952 42.3645 12.1943 43.1638 12.2266 43.9336C12.2586 44.7001 12.2157 45.3244 12.0322 45.7539C11.9444 45.9595 11.829 46.1072 11.6846 46.209C11.5653 46.293 11.4072 46.3561 11.1914 46.3848C10.8884 46.111 10.7467 45.6674 10.7314 45.0449C10.7146 44.3562 10.8531 43.5653 10.9834 42.7861L11.1074 42.0479L10.4248 42.3555C8.92072 43.0327 7.92233 44.3449 6.96973 45.627C6.019 46.9065 5.10034 48.1744 3.75098 49.04H3.22754C2.94307 48.922 2.74923 48.7077 2.61133 48.3877C2.47176 48.0637 2.39836 47.6468 2.36035 47.1572C2.68688 46.7304 3.0957 46.312 3.5459 45.8848C4.0182 45.4366 4.58222 44.9383 5.06738 44.4678C6.0527 43.5122 6.99117 42.4228 7.14648 41.0859L6.36523 40.9268C6.29932 41.1498 6.20077 41.2239 6.11035 41.2588C5.99321 41.3039 5.81313 41.3101 5.55957 41.2559C5.31231 41.2029 5.04126 41.1031 4.76855 40.9893C4.57401 40.908 4.34989 40.8093 4.16309 40.7305C3.94651 40.272 3.88198 39.9335 3.89648 39.6787C3.91167 39.4119 4.01524 39.1988 4.19336 39C4.38 38.7917 4.6434 38.6045 4.96973 38.4043C5.06959 38.343 5.17913 38.2789 5.29297 38.2119C5.32219 38.2814 5.37937 38.3717 5.49316 38.4287C5.65655 38.5105 5.80496 38.4594 5.85938 38.4355C5.92047 38.4087 5.96626 38.3725 5.99121 38.3516C6.0424 38.3086 6.09905 38.2457 6.15332 38.1826Z" stroke="black" stroke-width="0.8"/>
<path d="M15.2432 16.1802C15.2746 16.1978 15.3313 16.2396 15.3672 16.3198C15.3693 16.3246 15.3702 16.3298 15.3721 16.3345C15.2862 16.3563 15.2173 16.394 15.1787 16.4634L15.166 16.4478L15.2139 16.1655C15.1992 16.1631 15.2139 16.1638 15.2432 16.1802ZM8.34668 7.87061C9.42564 6.85918 10.9662 6.5405 12.4854 6.82471C14.0048 7.10905 15.456 7.98976 16.3252 9.30811C17.1686 10.5875 17.4819 12.3088 16.7373 14.3726C16.5728 14.471 16.4183 14.5627 16.2861 14.6509C16.1181 14.763 15.9583 14.8862 15.8271 15.0415C15.6212 15.2855 15.5207 15.5663 15.4844 15.9136C15.4265 15.9174 15.3685 15.9245 15.3135 15.936C15.2087 15.958 15.0792 16.0022 14.9668 16.1001C14.9505 16.1143 14.9364 16.1305 14.9219 16.146L14.832 16.0337C14.4842 16.2298 13.8636 16.3623 13.0693 16.3784C12.2886 16.3943 11.3888 16.2966 10.5166 16.0737C9.64278 15.8505 8.81443 15.507 8.16504 15.0435C7.5238 14.5857 7.07671 14.0253 6.90234 13.3628C6.58865 10.6244 7.27803 8.87244 8.34668 7.87061ZM13.0068 9.05518C12.3041 8.45974 11.5374 8.27772 10.8203 8.42529C10.1174 8.57008 9.5084 9.02137 9.07324 9.60303C8.21091 10.7559 7.93502 12.5692 9.08105 13.937L9.18555 14.061L9.3457 14.0776C9.62029 14.1069 9.91182 14.1516 10.2266 14.1968C10.5365 14.2412 10.8643 14.2856 11.1924 14.3101C11.8419 14.3585 12.5425 14.3338 13.1592 14.0415L13.3408 13.9556L13.3799 13.7583C13.4439 13.4363 13.557 13.1566 13.6895 12.8589C13.8183 12.5694 13.9759 12.2428 14.0898 11.8794L14.1455 11.7017L14.0449 11.5444C13.6308 10.8965 13.3716 10.5417 13.2197 10.2251C13.091 9.9568 13.0626 9.75918 13.1367 9.45459L13.1953 9.21436L13.0068 9.05518Z" stroke="black" stroke-width="0.8"/>
<path d="M17.9004 18.2522C17.9259 18.3082 17.9597 18.3628 18.0049 18.4133C18.133 18.5564 18.3026 18.6156 18.4316 18.6438C18.38 18.7356 18.3497 18.8405 18.3486 18.9573L18.3447 19.303L18.6875 19.3567C19.9394 19.5507 20.7102 20.4168 21.3564 21.635C21.6798 22.2446 21.9589 22.9183 22.251 23.6116C22.4816 24.1588 22.7219 24.7172 22.9912 25.2444C22.9167 25.3082 22.8551 25.3882 22.8135 25.4885C22.7427 25.659 22.7585 25.8311 22.7793 25.9417L22.5684 26.2249C22.5719 26.2296 22.6091 26.2803 22.623 26.4749C22.6375 26.6774 22.6215 26.8905 22.6182 27.1663C22.6153 27.4041 22.6217 27.7146 22.7324 27.97C22.7781 28.0751 22.8451 28.1793 22.9414 28.2668C22.7708 28.5824 22.6592 28.9302 22.585 29.2893C22.474 29.8263 22.4379 30.4179 22.4131 31.0061C22.3662 32.1192 22.3561 33.2203 22.0557 34.179C14.6493 34.6751 8.55899 34.3637 1.29297 34.3997C0.650216 32.0168 0.0362668 28.1035 0.660156 25.0413C0.959233 23.5769 1.68081 21.7122 2.73828 20.4456C2.7762 20.473 2.81914 20.5014 2.86426 20.5237C2.91029 20.5464 2.99562 20.5823 3.10254 20.5823C3.23183 20.5822 3.36758 20.5283 3.46191 20.4094L3.46094 20.4084C3.83432 19.9396 4.08802 19.5916 4.33496 19.2981C4.57578 19.0119 4.75114 18.8547 4.91797 18.7756C5.20959 18.6376 5.63797 18.6669 6.79395 19.3108C7.06686 19.4627 7.38109 19.5452 7.67676 19.6047C7.82677 19.6349 7.9808 19.6612 8.12891 19.6858C8.27931 19.7107 8.42431 19.7345 8.56641 19.762C9.15556 19.8758 9.55663 20.0315 9.76855 20.3723L9.88184 20.5549L10.0967 20.5608C11.9118 20.6117 13.2076 20.1458 14.4355 19.6028C15.545 19.1122 16.5654 18.5788 17.9004 18.2522ZM16.8896 21.0032C15.1539 21.872 13.0269 22.3403 11.0234 22.384C9.01101 22.4279 7.18212 22.0424 6.00879 21.2668L5.73438 21.0852L5.50293 21.3206C2.91065 23.9571 2.40498 27.9301 2.99219 31.9788L3.03516 32.2727L3.33008 32.3167C3.71744 32.374 4.16153 32.3363 4.5791 32.2844C5.02158 32.2294 5.42108 32.1607 5.82031 32.1243C6.21624 32.0882 6.52526 32.0953 6.74219 32.1633C6.92766 32.2216 7.03117 32.3164 7.08203 32.5042L7.29883 33.3069L7.79102 32.637C8.34324 31.8847 9.12397 31.8685 10.0381 31.9944C10.4617 32.0527 10.9614 32.1521 11.3691 32.1624C11.5527 32.167 11.7472 32.1523 11.9355 32.1028C11.9553 32.1663 11.9836 32.2346 12.0283 32.2991C12.1258 32.4396 12.2749 32.5315 12.4551 32.5559L12.7998 32.6028L12.793 32.7268L13.3545 32.5393C13.7205 32.4176 13.9541 32.482 14.3105 32.5042C14.4383 32.5121 14.5887 32.5119 14.748 32.4719V32.9124L15.2451 32.7893C16.1842 32.5557 16.8271 32.656 17.5674 32.803C18.3246 32.9533 19.1843 33.1535 20.4639 33.0393L20.8154 33.0081L20.8281 32.6555C20.9208 30.1325 20.986 27.5818 20.5625 25.4993C20.137 23.4072 19.1951 21.6874 17.2012 20.9836L17.041 20.927L16.8896 21.0032Z" stroke="black" stroke-width="0.8"/>
<path d="M42.3213 38.0129C43.1028 37.932 43.7255 37.8941 44.3066 37.9709C44.3646 38.085 44.4563 38.1885 44.54 38.2688C44.6308 38.3559 44.74 38.4422 44.8545 38.5178C44.9683 38.593 45.097 38.6638 45.2295 38.7141C45.356 38.7622 45.5181 38.8041 45.6865 38.7864C45.7694 38.7776 45.8525 38.7524 45.9297 38.7112C45.9983 38.794 46.0672 38.8737 46.1367 38.9495C46.3406 39.1718 46.5062 39.336 46.6797 39.5276C46.6768 39.5775 46.6649 39.5966 46.6602 39.6038C46.6381 39.6371 46.5993 39.6695 46.4814 39.7512C46.3864 39.8171 46.212 39.9328 46.0908 40.1165C46.0334 40.2036 45.9931 40.2984 45.9678 40.4006H41.9297L42.1348 40.9426C42.412 41.6755 42.9206 42.2932 43.499 42.8557C44.0718 43.4127 44.7596 43.9575 45.3916 44.5012C46.5732 45.5179 47.6327 46.5956 48.0205 48.1047C48.0107 48.1085 48.0009 48.1122 47.9912 48.1165C47.8028 48.199 47.6949 48.3411 47.6357 48.426C47.6156 48.4549 47.5986 48.476 47.5869 48.4934C45.4311 46.9122 43.6511 44.9445 41.8477 42.9338L41.4785 42.5217L41.2031 43.0022C41.0955 43.1898 41.0265 43.4142 40.9756 43.636C40.9239 43.8614 40.8845 44.112 40.8486 44.3625C40.7749 44.8773 40.7123 45.3978 40.583 45.8596C40.4528 46.3245 40.2755 46.65 40.0293 46.8274C39.8209 46.9775 39.4933 47.0672 38.9297 46.9329C38.497 46.1504 38.1476 44.7724 38.0576 43.175C37.9676 41.5768 38.1414 39.8202 38.707 38.3127C40.2178 38.2658 41.3761 38.1109 42.3213 38.0129ZM44.8633 38.0198C44.8455 38.0294 44.829 38.0364 44.8145 38.0413L44.8281 37.9895C44.8392 37.9999 44.8515 38.0093 44.8633 38.0198Z" stroke="black" stroke-width="0.8"/>
</svg>
