<?xml version="1.0" encoding="UTF-8"?>
<svg id="Layer_1" xmlns="http://www.w3.org/2000/svg" xmlns:xlink="http://www.w3.org/1999/xlink" version="1.1" viewBox="0 0 500 100">
  <!-- Generator: Adobe Illustrator 30.2.1, SVG Export Plug-In . SVG Version: 2.1.1 Build 1)  -->
  <defs>
    <style>
      .st0 {
        mask: url(#mask);
      }

      .st1 {
        fill: #334155;
      }

      .st2 {
        mask: url(#mask-2);
      }

      .st3 {
        mask: url(#mask-3);
      }

      .st4 {
        mask: url(#mask-1);
      }

      .st5 {
        fill: #fff;
      }

      .st6 {
        fill: #2d3e4e;
      }
    </style>
    <mask id="mask" x="372.89" y="34.17" width="99.14" height="31.54" maskUnits="userSpaceOnUse">
      <g id="mask7_1412_139">
        <path class="st5" d="M372.89,34.17h99.14v31.54h-99.14v-31.54Z"/>
      </g>
    </mask>
    <mask id="mask-1" x="375.46" y="37.68" width="95.12" height="26.26" maskUnits="userSpaceOnUse">
      <g id="mask8_1412_139">
        <path class="st5" d="M376.13,37.68l94.46,2.66-.67,23.6-94.46-2.64.67-23.62Z"/>
      </g>
    </mask>
    <mask id="mask-2" x="375.47" y="37.68" width="95.88" height="27.35" maskUnits="userSpaceOnUse">
      <g id="mask9_1412_139">
        <path class="st5" d="M376.18,37.68l95.18,2.68-.69,24.68-95.19-2.68.7-24.68Z"/>
      </g>
    </mask>
    <mask id="mask-3" x="375.47" y="38.48" width="95.02" height="25.16" maskUnits="userSpaceOnUse">
      <g id="mask10_1412_139">
        <path class="st5" d="M404.36,38.48l66.13,1.85-28.88,23.31-66.13-1.85,28.88-23.31Z"/>
      </g>
    </mask>
  </defs>
  <path class="st6" d="M15.21,99.98V0h3.55l1.18,6.21v93.77h-4.73ZM84.29,99.98L17.73,6.36l1.03-6.36,66.55,93.62-1.03,6.36ZM84.29,99.98l-1.18-6.21V0h4.73v99.98h-3.55Z"/>
  <path class="st6" d="M124.22,99.98L164.9,0h4.44l40.37,99.98h-5.17L165.93,4.13h2.23l-38.9,95.85h-5.04ZM141.97,67.95v-4.17h50.15v4.17h-50.15Z"/>
  <path class="st6" d="M247.32,52.95v-4.29h32.83c8.19,0,14.39-2.03,18.63-6.12s6.38-9.44,6.38-16.05-2.14-12.09-6.38-16.13c-4.24-4.04-10.44-6.05-18.63-6.05h-32.83V0h32.09c6.61,0,12.18,1.11,16.72,3.32,4.53,2.23,7.97,5.33,10.35,9.33,2.37,3.99,3.55,8.61,3.55,13.83s-1.18,9.84-3.55,13.83c-2.37,4-5.82,7.1-10.35,9.31-4.55,2.23-10.11,3.33-16.72,3.33h-32.09ZM244.94,99.98V0h4.73v99.98h-4.73ZM311.21,99.98l-40.08-49.1,5.18-.89,41.26,49.99h-6.36Z"/>
  <g>
    <g class="st0">
      <g class="st4">
        <g class="st2">
          <g class="st3">
            <path class="st1" d="M404.36,38.48l66.13,1.85-28.89,23.31-66.13-1.85,28.89-23.31Z"/>
          </g>
        </g>
      </g>
    </g>
    <path class="st6" d="M395.43,100l-39.94-34.06,38.94-32.04h6.18l-40.52,33.2v-2.45l41.82,35.35h-6.48ZM352.04,100V0h4.45v100h-4.45Z"/>
    <path class="st6" d="M478.31,100l-39.94-34.06,38.94-32.04h6.18l-40.52,33.2v-2.45l41.82,35.35h-6.48ZM434.92,100V0h4.45v100h-4.45Z"/>
    <rect class="st6" x="353.25" y="12.56" width="81.73" height="9"/>
  </g>
</svg>