<svg width="171" height="48" viewBox="0 0 171 48" fill="none" xmlns="http://www.w3.org/2000/svg">
<path d="M9.72266 39.2863V8.27832H10.8241L11.1893 10.2058V39.2863H9.72266ZM31.1439 39.2863L10.5038 10.2507L10.8241 8.27832L31.4642 37.3139L31.1439 39.2863ZM31.1439 39.2863L30.7786 37.3588V8.27832H32.2453V39.2863H31.1439Z" fill="#2D3E4E"/>
<path d="M44.5804 39.2863L57.1961 8.27832H58.5728L71.0929 39.2863H69.4913L57.5164 9.55955H58.2075L46.1426 39.2863H44.5804ZM49.8571 29.0589V27.7271H65.8668V29.0589H49.8571Z" fill="#2D3E4E"/>
<path d="M83.7986 24.6983V23.3665H93.981C96.521 23.3665 98.4429 22.7371 99.7578 21.4671C101.073 20.1971 101.736 18.5394 101.736 16.4883C101.736 14.4091 101.073 12.7401 99.7578 11.487C98.4429 10.2339 96.521 9.61012 93.981 9.61012H83.7986V8.27832H93.7506C95.8017 8.27832 97.5269 8.62111 98.9374 9.30667C100.342 9.99786 101.41 10.9588 102.146 12.2007C102.882 13.437 103.247 14.8699 103.247 16.4883C103.247 18.1067 102.882 19.5396 102.146 20.7759C101.41 22.0178 100.342 22.9787 98.9374 23.6643C97.5269 24.3555 95.8017 24.6983 93.7506 24.6983H83.7986ZM83.0625 39.2863V8.27832H84.5292V39.2863H83.0625ZM103.613 39.2863L91.1826 24.0577L92.7897 23.7823L105.585 39.2863H103.613Z" fill="#2D3E4E"/>
<path d="M130.772 39.291L118.021 28.4175L130.451 18.1902H132.424L119.488 28.7884V28.0073L132.84 39.291H130.772ZM116.92 39.291V7.36719H118.342V39.291H116.92Z" fill="#2D3E4E"/>
<path d="M157.231 39.291L144.48 28.4175L156.91 18.1902H158.883L145.947 28.7884V28.0073L159.299 39.291H157.231ZM143.379 39.291V7.36719H144.801V39.291H143.379Z" fill="#2D3E4E"/>
<path d="M117.303 12.8184L143.394 12.8184" stroke="#2D3E4E" stroke-width="3.2319"/>
<path d="M133.744 18.3902L124.776 25.6563L145.838 26.3001L155.457 18.3008L133.744 18.3902Z" fill="#2D3E4E"/>
</svg>
